<svg width="129" height="102" viewBox="0 0 129 102" fill="none" xmlns="http://www.w3.org/2000/svg">
<path d="M104.52 26.7744C104.52 26.7744 104.455 26.7744 104.338 26.7646L104.52 26.7744Z" fill="#33535E"/>
<path d="M24.0627 26.9551C24.0985 26.9307 24.1327 26.9046 24.1684 26.8818L24.0627 26.9551Z" fill="#33535E"/>
<path d="M113.273 25.6152L101.844 25.778C82.4504 25.7048 74.0984 28.3912 72.5018 38.816C70.6679 50.7858 84.829 47.3782 84.829 47.3782C84.829 47.3782 85.4794 55.5708 79.5011 57.3438C77.3095 57.9951 64.0051 58.1774 59.5031 58.6203C61.368 57.4171 63.8263 54.3595 65.14 45.908C67.8031 28.7705 77.7647 26.1769 77.7647 26.1769C73.1652 26.0825 62.9694 27.2026 59.7031 42.6502C57.6919 52.1469 54.0126 56.2791 51.4763 58.0537C53.5801 56.3702 56.4807 52.4628 58.1293 43.4121C60.9274 28.0509 70.6727 26.413 70.6727 26.413C56.5457 25.472 50.3024 33.5979 46.1224 40.8022C41.9423 48.0066 28.6233 66.2643 20.1266 52.1144C10.9373 36.8183 22.8141 27.8409 24.0628 26.9552C9.0448 37.1211 15.7043 56.7887 29.0314 59.6102C42.3894 62.4415 53.4907 39.8189 53.4907 39.8189C51.66 56.3572 40.0547 59.4685 40.0547 59.4685C40.0547 59.4685 44.7794 59.3725 48.9221 59.3057C48.8148 59.3334 48.7595 59.3432 48.7595 59.3432L51.3023 59.3073C53.4745 59.3073 56.1474 59.2911 54.6435 59.2618L76.7063 58.9524C76.7063 58.9524 88.7376 59.2552 91.6153 44.7341C94.5289 30.0356 100.709 26.6621 103.333 25.9588L113.28 25.8187L113.273 25.6152ZM85.6127 43.0002C85.6127 43.0002 77.5794 44.7748 78.0639 39.7668C78.5484 34.7587 84.2567 29.1206 92.1909 29.4869C92.1909 29.4869 87.1507 33.2934 85.6127 43.0002Z" fill="#263F47"/>
<path d="M37.8075 26.1885L24.0804 26.9016L37.71 27.0758L37.8075 26.1885Z" fill="#263F47"/>
<path d="M115.329 20.8595L110.656 25.6719L115.462 30.3517L120.135 25.5393L115.329 20.8595Z" fill="#948956"/>
<path d="M38.4557 21.9103L33.7823 26.7227L38.5881 31.4025L43.2614 26.5901L38.4557 21.9103Z" fill="#948956"/>
<path d="M22.8971 68.4669C22.8971 67.6594 23.1578 67.0532 23.6791 66.6483C24.2005 66.2435 24.8812 66.0416 25.7212 66.0427H33.4115C33.4388 66.0389 33.4667 66.0415 33.4929 66.0503C33.5191 66.0592 33.5429 66.0739 33.5624 66.0935C33.5819 66.113 33.5967 66.1368 33.6054 66.1631C33.6142 66.1893 33.6169 66.2172 33.6131 66.2446C33.6126 66.5841 33.5788 66.9227 33.5123 67.2556C33.4504 67.5756 33.335 67.8827 33.1709 68.1641C33.0115 68.432 32.788 68.6558 32.5205 68.8154C32.1933 68.9965 31.8226 69.0838 31.4491 69.0677H26.3016V73.0566H32.9058C32.9332 73.0528 32.9611 73.0554 32.9872 73.0642C33.0134 73.073 33.0372 73.0878 33.0567 73.1074C33.0763 73.1269 33.091 73.1507 33.0998 73.177C33.1086 73.2032 33.1112 73.2311 33.1074 73.2585C33.1063 73.5753 33.0856 73.8918 33.0457 74.206C33.0066 74.5228 32.9125 74.8303 32.7676 75.1145C32.6275 75.3895 32.4248 75.6277 32.1758 75.8097C31.8774 76.0074 31.5236 76.1044 31.1662 76.0865H26.3016V81.5684C26.3175 81.9394 26.2062 82.3048 25.9862 82.6038C25.7741 82.8737 25.5018 83.09 25.1912 83.2355C24.8588 83.3905 24.5072 83.5 24.1457 83.5612C23.7675 83.6295 23.4185 83.68 23.0987 83.7126C22.9638 83.7126 22.8971 83.654 22.8971 83.5367V68.4669Z" fill="#948956"/>
<path d="M34.7934 83.7423C34.6584 83.7423 34.6178 83.6837 34.6682 83.5648L40.2644 68.4674C40.4205 68.0453 40.6398 67.6495 40.9147 67.2935C41.1482 66.9997 41.4297 66.7476 41.7472 66.5478C42.0436 66.3664 42.3676 66.2344 42.7064 66.1571C43.0453 66.0812 43.3916 66.043 43.7388 66.0431C43.8848 66.0338 44.031 66.0554 44.1681 66.1066C44.2705 66.1731 44.3429 66.2771 44.3697 66.3964L50.8568 83.5648C50.9251 83.6837 50.8828 83.7423 50.7316 83.7423C50.53 83.7423 50.3284 83.7423 50.1268 83.7537C49.9252 83.7651 49.7317 83.7667 49.5464 83.7667C49.2638 83.7672 48.9815 83.7503 48.7009 83.7163C48.4327 83.6855 48.1701 83.6176 47.9205 83.5144C47.6699 83.4089 47.4427 83.2544 47.2523 83.0601C47.0302 82.8263 46.8586 82.5492 46.7483 82.2461L45.2102 78.5845H39.7132L38.4272 82.2461C38.3281 82.5724 38.1353 82.8623 37.8728 83.0797C37.6244 83.2794 37.3425 83.4332 37.0403 83.5339C36.7248 83.6374 36.3965 83.6966 36.0648 83.7098C35.7201 83.7271 35.3798 83.7358 35.0438 83.7358L34.7934 83.7423ZM44.2477 75.5611L42.4593 70.6132L40.6708 75.5611H44.2477Z" fill="#948956"/>
<path d="M64.3952 77.456V68.4916C64.375 68.0492 64.4847 67.6106 64.7106 67.2298C64.9063 66.9243 65.1751 66.6724 65.4926 66.4972C65.8153 66.3252 66.1651 66.2101 66.5267 66.1569C66.881 66.1002 67.2392 66.0708 67.5981 66.069C67.6248 66.0654 67.652 66.0679 67.6775 66.0763C67.7031 66.0848 67.7264 66.099 67.7457 66.1178C67.765 66.1367 67.7797 66.1596 67.7888 66.185C67.7979 66.2104 67.8011 66.2376 67.7981 66.2644V81.5686C67.7981 82.0918 67.6848 82.4961 67.4583 82.7816C67.2377 83.0611 66.9518 83.282 66.6258 83.4247C66.3058 83.5654 65.9656 83.655 65.6178 83.69C65.2731 83.7242 64.9675 83.7405 64.722 83.7405C64.6634 83.7401 64.6056 83.7262 64.5532 83.7C64.5008 83.6737 64.4551 83.6358 64.4196 83.5891L56.6789 72.0507V81.8193C56.6975 82.165 56.6046 82.5075 56.4139 82.7962C56.2367 83.0413 56.0037 83.2405 55.7343 83.3774C55.4454 83.5238 55.1345 83.6217 54.814 83.6672C54.4966 83.7165 54.176 83.7421 53.8548 83.7438C53.8274 83.7475 53.7996 83.7449 53.7734 83.7361C53.7472 83.7273 53.7234 83.7125 53.7039 83.693C53.6843 83.6734 53.6696 83.6496 53.6608 83.6234C53.652 83.5972 53.6494 83.5693 53.6532 83.5419V68.4916C53.6371 68.076 53.7284 67.6633 53.9182 67.2933C54.0817 66.9973 54.3102 66.7423 54.5864 66.5477C54.8638 66.3595 55.1771 66.2309 55.5066 66.1699C55.8349 66.1045 56.1686 66.0707 56.5033 66.069C56.5678 66.0688 56.6314 66.0848 56.6882 66.1155C56.745 66.1462 56.7932 66.1907 56.8285 66.2448L64.3952 77.456Z" fill="#948956"/>
<path d="M81.5656 77.4554V68.491C81.5446 68.0485 81.6543 67.6096 81.881 67.2292C82.0762 66.9238 82.3444 66.6719 82.6614 66.4966C82.9843 66.3251 83.334 66.21 83.6955 66.1563C84.0498 66.0996 84.408 66.0702 84.7669 66.0684C84.7943 66.0642 84.8223 66.0666 84.8487 66.0753C84.875 66.084 84.899 66.0987 84.9186 66.1184C84.9382 66.138 84.9529 66.162 84.9616 66.1884C84.9703 66.2148 84.9726 66.2428 84.9685 66.2703V81.5745C84.9685 82.0971 84.8563 82.5009 84.6287 82.7874C84.4085 83.0673 84.1225 83.2883 83.7963 83.4305C83.4763 83.5717 83.1361 83.6612 82.7882 83.6959C82.4436 83.7301 82.146 83.7464 81.894 83.7464C81.8351 83.7462 81.7771 83.7325 81.7244 83.7062C81.6716 83.68 81.6257 83.6419 81.59 83.595L73.8509 72.0566V81.8252C73.8685 82.1708 73.7757 82.5129 73.5859 82.8021C73.4081 83.0473 73.1746 83.2465 72.9047 83.3833C72.6161 83.5302 72.3051 83.6282 71.9844 83.6731C71.6676 83.7223 71.3475 83.7479 71.0268 83.7497C70.9994 83.7538 70.9714 83.7514 70.945 83.7427C70.9187 83.7341 70.8948 83.7193 70.8751 83.6997C70.8555 83.68 70.8408 83.656 70.8321 83.6297C70.8235 83.6033 70.8211 83.5752 70.8252 83.5478V68.491C70.8084 68.0753 70.8997 67.6624 71.0902 67.2927C71.2527 66.996 71.4814 66.7408 71.7585 66.547C72.0359 66.3588 72.3492 66.2302 72.6787 66.1693C73.0064 66.1039 73.3396 66.0701 73.6737 66.0684C73.7383 66.0682 73.8018 66.0842 73.8586 66.1149C73.9154 66.1456 73.9636 66.1901 73.9989 66.2442L81.5656 77.4554Z" fill="#948956"/>
</svg>
